<?xml version="1.0" encoding="utf-8"?>
<!-- Generator: Adobe Illustrator 27.6.1, SVG Export Plug-In . SVG Version: 6.00 Build 0)  -->
<svg version="1.1" id="Layer_1" xmlns="http://www.w3.org/2000/svg" xmlns:xlink="http://www.w3.org/1999/xlink" x="0px" y="0px"
viewBox="0 0 512 512" style="enable-background:new 0 0 512 512;" xml:space="preserve">
<style type="text/css">
.st0{fill:#6659B2;}
.st1{fill:#725FDF;}
.st2{fill:#49407F;}
</style>
<g>
<path class="st0" d="M106.7,7.3C70.3,20.1,41.5,49,28.6,85.3h78.1V7.3z"/>
<path class="st1" d="M341.3,362.7v-320c0-23.6-19.1-42.7-42.7-42.7H149.3v106.7c0,11.8-9.6,21.3-21.3,21.3H21.3v234.7
c0,23.6,19.1,42.7,42.7,42.7h234.7C322.2,405.3,341.3,386.2,341.3,362.7z"/>
</g>
<path class="st2" d="M448,106.7h-64v256c0,47.1-38.2,85.3-85.3,85.3h-128v21.3c0,23.6,19.1,42.7,42.7,42.7H448
c23.6,0,42.7-19.1,42.7-42.7v-320C490.7,125.8,471.6,106.7,448,106.7z"/>
</svg>
